<svg width="196" height="41" viewBox="0 0 196 41" fill="none" xmlns="http://www.w3.org/2000/svg">
<path d="M90.2808 39.6534C90.0469 39.439 89.6769 39.0868 89.4503 38.8724C89.2314 38.6658 88.6047 38.0762 88.0686 37.5708C87.5249 37.0732 86.8153 36.3993 86.4831 36.0777C86.1508 35.7563 85.6979 35.3199 85.4713 35.1131C85.2449 34.9063 84.9202 34.6001 84.7466 34.4316C84.573 34.2632 83.9764 33.6966 83.4177 33.1683C81.9605 31.7901 81.349 31.2082 80.7072 30.5957C80.3977 30.297 79.7182 29.654 79.1972 29.1792C78.6761 28.6969 78.0948 28.1455 77.906 27.9618C77.7173 27.7704 77.2492 27.3263 76.8642 26.9665C76.4866 26.6065 75.8448 26.0017 75.4371 25.6189L74.7048 24.9146L74.6821 32.2954L74.667 39.6764H71.7602H68.8533V26.239V12.8018H69.5253H70.2049L71.0203 13.5904C71.4657 14.0192 71.9716 14.4862 72.1376 14.6317C72.3038 14.7695 72.8475 15.2901 73.3457 15.7802C73.844 16.2779 74.4556 16.8597 74.7048 17.0895C74.9539 17.3115 75.4447 17.7709 75.7996 18.1154C76.1544 18.46 76.8339 19.1032 77.3096 19.5396C78.1174 20.2899 78.6157 20.757 80.375 22.4414C81.7037 23.7124 82.9194 24.8685 83.7349 25.6265C84.1878 26.0476 84.9277 26.752 85.3884 27.1884L86.2189 27.9771V20.6268C86.2189 14.8154 86.2415 13.2688 86.317 13.2458C86.3622 13.2305 87.6911 13.2305 89.2616 13.2458L92.1079 13.2765L92.0929 26.6449L92.0702 40.0209L91.3907 40.0362L90.7112 40.0591L90.2808 39.6534Z" fill="white"/>
<path d="M115.589 39.983C115.446 39.9446 115 39.8605 114.608 39.7914C114.215 39.7226 113.551 39.5389 113.135 39.3934C112.72 39.2479 112.305 39.11 112.214 39.0871C112.124 39.0641 112.003 39.0029 111.957 38.9416C111.912 38.8804 111.829 38.8345 111.776 38.8345C111.61 38.8345 110.832 38.4056 110.04 37.8849C108.96 37.1653 107.578 35.8407 106.853 34.8147C106.468 34.271 105.872 33.2911 105.721 32.9389C105.676 32.8316 105.532 32.5254 105.411 32.2497C105.064 31.4994 104.664 30.1059 104.475 29.034C104.339 28.2453 104.339 24.5089 104.475 23.8275C105.094 20.7189 106.31 18.3455 108.243 16.4695C109.942 14.8234 111.731 13.8357 114.23 13.1542C115.687 12.7638 118.957 12.6566 120.248 12.9552C120.421 13.0011 120.686 13.0317 120.829 13.0317C120.972 13.0317 121.169 13.0624 121.267 13.1006C121.365 13.1466 121.697 13.2461 122.007 13.338C122.316 13.4299 122.641 13.5294 122.724 13.5677C122.807 13.5983 123.064 13.7055 123.29 13.7974C123.977 14.0807 124.362 14.2721 124.861 14.5784C125.117 14.7392 125.351 14.8693 125.374 14.8693C125.397 14.8693 125.744 15.122 126.144 15.4359C128.07 16.9136 129.489 18.8278 130.335 21.0789C130.773 22.2579 130.81 22.4033 131.135 24.2562C131.241 24.8535 131.241 27.9851 131.135 28.6435C130.992 29.5393 130.833 30.2821 130.644 30.9098C129.542 34.608 126.831 37.6324 123.321 39.0641C122.181 39.5312 121.66 39.6766 120.648 39.8375C120.376 39.8834 120.051 39.9446 119.923 39.9905C119.644 40.0748 115.959 40.0671 115.589 39.983ZM118.624 34.3935C118.806 34.3553 119.153 34.2787 119.402 34.2251C120.013 34.1026 121.101 33.6126 121.727 33.1916C123.373 32.0813 124.476 30.4275 124.989 28.2913C125.148 27.6405 125.178 27.3266 125.178 26.3848C125.178 25.5808 125.14 25.1367 125.057 24.8305C124.989 24.5932 124.906 24.2639 124.861 24.0955C124.612 23.1079 123.879 21.7603 123.102 20.8568C122.762 20.4663 121.984 19.8384 121.365 19.4479C120.512 18.9119 118.76 18.3914 117.779 18.3914C116.42 18.3914 114.479 19.1033 113.422 19.9915C113.294 20.0988 113.045 20.3054 112.879 20.4434C112.244 20.9639 111.354 22.3422 110.953 23.4064C110.493 24.6314 110.425 25.0296 110.425 26.4691C110.425 27.7707 110.523 28.4444 110.795 29.0722C110.848 29.2024 110.938 29.4398 110.991 29.6082C111.051 29.7766 111.172 30.0523 111.263 30.2207C111.354 30.3891 111.504 30.6648 111.595 30.8333C112.154 31.867 113.573 33.1916 114.66 33.6739C114.902 33.7812 115.234 33.9342 115.4 34.0108C115.566 34.0873 115.921 34.1946 116.193 34.2405C116.465 34.294 116.805 34.363 116.948 34.3935C117.326 34.4778 118.254 34.4855 118.624 34.3935Z" fill="white"/>
<path d="M0.350214 39.6233C0.320013 39.6003 0.297363 33.674 0.297363 26.4692C0.297363 16.0639 0.320013 13.3459 0.387965 13.2923C0.53897 13.1851 13.2988 13.2923 13.85 13.4071C15.2468 13.6827 16.1075 13.966 17.2854 14.5479C20.5017 16.1252 22.5704 18.7131 23.6502 22.5261C24.1561 24.2947 24.2089 27.319 23.7936 29.8381C23.7257 30.244 23.3708 31.4307 23.2499 31.6527C23.2048 31.7293 23.1745 31.8366 23.1745 31.8901C23.1745 32.0585 22.3516 33.6358 21.9286 34.279C21.1586 35.4505 20.0639 36.5759 18.8558 37.4259C17.9119 38.0919 16.4397 38.8194 15.5488 39.0567C14.5899 39.317 14.2879 39.3858 13.5253 39.5238C12.7099 39.6692 12.3324 39.6769 6.53383 39.6769C3.15889 39.6769 0.372865 39.6538 0.350214 39.6233ZM11.6227 34.1641C12.3097 34.0722 12.8609 33.9497 13.1856 33.812C13.3139 33.7506 13.4498 33.7047 13.4876 33.7047C13.5253 33.7047 13.7971 33.5899 14.084 33.4444C16.6209 32.1887 18.1687 29.3021 18.0177 26.1246C17.9573 24.9302 17.8214 24.1187 17.5797 23.5597C17.542 23.4755 17.4514 23.2305 17.3683 23.0237C17.0136 22.0668 16.1906 20.9412 15.3827 20.2903C14.7938 19.8157 13.7745 19.2491 13.2082 19.0884C13.0195 19.0347 12.7854 18.9505 12.6797 18.9122C12.1965 18.7209 10.8375 18.6213 8.54975 18.6213H6.18652V26.431V34.2407H8.62525C9.96163 34.2407 11.3131 34.2025 11.6227 34.1641Z" fill="white"/>
<path d="M36.3118 26.4769C36.3118 19.2108 36.3344 13.2617 36.3722 13.2464C36.4023 13.231 40.7663 13.231 46.0742 13.2464L55.7158 13.2693V15.9415V18.6213H48.9659C42.8804 18.6213 42.2161 18.6366 42.1707 18.7438C42.148 18.8127 42.1254 19.8694 42.1254 21.102C42.1254 22.7405 42.148 23.3608 42.2161 23.4297C42.2839 23.4985 43.8317 23.5215 48.7092 23.5215H55.1117V26.2013V28.8812H48.7923C45.3116 28.8812 42.3897 28.9041 42.299 28.9271L42.1254 28.973V31.515C42.1254 32.9085 42.1556 34.0952 42.1858 34.1411C42.2311 34.2177 43.7034 34.2407 48.9659 34.2559L55.678 34.2791L55.7007 36.9818L55.7158 39.677H46.0138H36.3118V26.4769Z" fill="white"/>
<path d="M143.502 39.6231C143.472 39.6001 143.449 33.6585 143.449 26.4232C143.449 13.9659 143.457 13.2768 143.585 13.2538C143.653 13.2385 148.017 13.2308 153.287 13.2461L162.853 13.2691L162.839 15.926L162.816 18.5828L156.111 18.6058L149.414 18.6211L149.429 21.0558L149.452 23.483L155.854 23.506L162.249 23.5212V26.2011V28.8809H155.832H149.414L149.429 31.5454L149.452 34.2022L156.134 34.2404L162.816 34.2788L162.839 36.9815L162.853 39.6767H153.204C147.897 39.6767 143.525 39.6537 143.502 39.6231Z" fill="white"/>
<path d="M175.99 26.4692V13.2617H178.898H181.804V23.6594C181.804 31.6453 181.826 34.08 181.895 34.1489C181.963 34.2178 183.495 34.2407 188.312 34.2407C193.326 34.2407 194.639 34.2637 194.639 34.3403C194.647 34.3862 194.656 35.6036 194.662 37.0354L194.678 39.6386L185.33 39.6616L175.99 39.677V26.4692Z" fill="white"/>
<path d="M147.64 6.79149C146.175 6.41632 145.261 5.13766 145.261 3.46088C145.261 2.01378 145.858 0.995457 147.111 0.31402C147.24 0.245111 147.617 0.145575 147.964 0.0843223C148.742 -0.0381831 149.693 0.0766658 150.245 0.35996C150.818 0.658566 151.415 1.26344 151.694 1.83769C151.943 2.34302 151.943 2.35832 151.943 3.46088C151.943 4.49452 151.928 4.60171 151.747 4.9922C151.415 5.69659 150.833 6.30913 150.207 6.59243C149.557 6.88338 148.372 6.98291 147.64 6.79149Z" fill="white"/>
<path d="M157.138 6.79173C156.292 6.58499 155.469 5.90355 155.076 5.09197C154.857 4.62491 154.827 4.48709 154.79 3.7291C154.744 2.69545 154.88 2.07527 155.28 1.48571C155.839 0.658801 156.526 0.222375 157.515 0.0845573C159.161 -0.160453 160.528 0.505669 161.2 1.89151C161.456 2.41982 161.456 2.43514 161.456 3.46112C161.456 4.46413 161.449 4.51006 161.215 5.00774C160.633 6.26342 159.539 6.91424 158.059 6.89892C157.772 6.89126 157.357 6.84532 157.138 6.79173Z" fill="white"/>
</svg>
